<?xml version="1.0" encoding="utf-8"?>
<!-- Generator: Adobe Illustrator 26.0.1, SVG Export Plug-In . SVG Version: 6.00 Build 0)  -->
<svg version="1.1" id="Layer_1" xmlns="http://www.w3.org/2000/svg" xmlns:xlink="http://www.w3.org/1999/xlink" x="0px" y="0px"
	 viewBox="0 0 500 500" style="enable-background:new 0 0 500 500;" xml:space="preserve">
<style type="text/css">
	.st0{clip-path:url(#SVGID_00000166661821332312982230000015712665969574461630_);fill:#01689E;}
</style>
<g>
	<g>
		<defs>
			<rect id="SVGID_1_" x="11" y="72.39" width="478" height="355.22"/>
		</defs>
		<clipPath id="SVGID_00000003085474435794614930000005419606863860690315_">
			<use xlink:href="#SVGID_1_"  style="overflow:visible;"/>
		</clipPath>
		<path style="clip-path:url(#SVGID_00000003085474435794614930000005419606863860690315_);fill:#01689E;" d="M203.9,116.83h37.93
			c1.26,0,2.5,0.27,3.65,0.78c4.29,1.92,13.9,7.74,13.9,21.3c0,17.46-14.38,23.63-16.95,23.63h-39.55v-45.72H203.9z"/>
		<path style="clip-path:url(#SVGID_00000003085474435794614930000005419606863860690315_);fill:#01689E;" d="M88.49,74.19h54.11
			c1.23,0,2.23,1,2.23,2.23v285.29c0,1.33-0.12,2.65-0.35,3.96c-2.04,11.41-14.44,61.94-74.13,61.94
			c-35.45,0-54.12-24.24-58.87-31.41c-0.75-1.13-0.59-2.62,0.36-3.57l30.06-30.06c1.07-1.07,2.79-1.13,3.9-0.11
			c3.58,3.27,11.76,9.68,20.94,9.68c9.94,0,16.21-8.02,18.26-11.12c0.5-0.75,0.74-1.63,0.74-2.52l0.51-282.07
			C86.27,75.18,87.26,74.19,88.49,74.19"/>
		<path style="clip-path:url(#SVGID_00000003085474435794614930000005419606863860690315_);fill:#01689E;" d="M204.42,203.13h42.23
			c1.74,0,3.43,0.47,4.91,1.39c4.92,3.05,15.53,11.03,15.53,23.27c0,12.06-10.03,20.59-14.89,24.02c-1.56,1.1-3.43,1.67-5.34,1.67
			h-42.45v-48.29V203.13z"/>
		<path style="clip-path:url(#SVGID_00000003085474435794614930000005419606863860690315_);fill:#01689E;" d="M465.7,178.84
			c-0.61-0.64-0.67-1.57-0.23-2.3c6.02-9.44,12.9-21.89,12.9-41.54c0-20.55-19.84-62.34-58.89-62.34s-165.24-0.26-165.24-0.26
			c44.52,0,61.8,43.75,61.8,65.67c0,15.71-8.9,33.64-11.58,38.69c-0.42,0.77-0.19,1.73,0.51,2.27c4.83,3.84,22.37,19.75,22.37,50.12
			c0,35.27-27.72,70.22-61.99,70.22H418.3c9.99,0,19.78-2.4,28.58-7.04c17.34-9.15,42.12-27.91,42.12-60.42
			C489,208.28,473.77,187.32,465.7,178.84 M363.83,116.81h38.34c1.79,0,3.55,0.42,5.18,1.22c4.61,2.3,12.99,8.22,12.99,20.9
			c0,17.44-14.4,23.62-16.96,23.62h-39.56V116.81z M414.85,250.56c-2.46,1.89-5.44,2.91-8.51,2.91h-40.96v-50.34h40.9
			c2.69,0,5.34,0.77,7.58,2.27c5.28,3.52,14.18,11.17,14.18,22.37C428.03,238.59,420,246.55,414.85,250.56"/>
		<path style="clip-path:url(#SVGID_00000003085474435794614930000005419606863860690315_);fill:#01689E;" d="M187.56,323.3
			c-0.38-0.03-1.06-0.06-1.92-0.06c-1.63,0-3.2,0.35-4.77,1.02c-1.54,0.67-3.33,1.82-5.35,3.46v-4.48h-5.12v30.37h5.12v-21.57
			c1.35-1.09,2.75-2.02,4.23-2.69c1.47-0.7,3.01-1.06,4.57-1.06c0.96,0,1.83,0.03,2.53,0.13c0.74,0.06,1.47,0.19,2.24,0.38h0.26
			v-5.25C188.55,323.43,187.94,323.33,187.56,323.3"/>
		<path style="clip-path:url(#SVGID_00000003085474435794614930000005419606863860690315_);fill:#01689E;" d="M226.06,336.17
			c0-4.39-1.12-7.78-3.33-10.18c-2.24-2.4-5.41-3.59-9.5-3.59c-4.42,0-7.97,1.44-10.69,4.35c-2.72,2.94-4.06,6.88-4.06,11.84
			c0,5.03,1.41,8.9,4.26,11.62c2.82,2.72,6.75,4.1,11.78,4.1c1.98,0,3.87-0.26,5.66-0.74c1.79-0.48,3.55-1.09,5.28-1.83v-5.57h-0.29
			c-0.87,0.8-2.37,1.6-4.45,2.43c-2.11,0.83-4.19,1.25-6.24,1.25c-1.57,0-3.01-0.22-4.29-0.67c-1.31-0.42-2.43-1.09-3.36-1.95
			c-0.99-0.9-1.76-2.02-2.3-3.42c-0.58-1.38-0.86-3.01-0.86-4.86h22.4V336.17z M203.66,335.05c0.22-2.4,1.15-4.42,2.78-6.02
			c1.6-1.6,3.78-2.43,6.53-2.43c2.72,0,4.74,0.74,6.08,2.21c1.31,1.47,2.02,3.55,2.02,6.24H203.66z"/>
		<path style="clip-path:url(#SVGID_00000003085474435794614930000005419606863860690315_);fill:#01689E;" d="M252.75,326.95
			c1.6,0,3.2,0.35,4.86,0.99c1.66,0.64,3.27,1.57,4.83,2.78h0.26v-5.66c-1.38-0.7-2.91-1.31-4.61-1.79
			c-1.66-0.48-3.39-0.74-5.12-0.74c-4.48,0-8.06,1.41-10.82,4.23c-2.72,2.85-4.06,6.75-4.06,11.71c0,2.66,0.35,4.99,1.09,6.98
			c0.7,1.98,1.73,3.65,3.04,4.96c1.31,1.28,2.88,2.27,4.7,2.91c1.86,0.64,3.87,0.96,6.05,0.96c1.73,0,3.36-0.23,4.9-0.67
			c1.5-0.45,3.14-1.09,4.83-1.92v-5.6h-0.26c-0.38,0.29-0.9,0.67-1.57,1.09c-0.64,0.41-1.34,0.83-2.08,1.22
			c-0.86,0.41-1.82,0.77-2.88,1.05c-1.09,0.26-2.11,0.42-3.17,0.42c-2.98,0-5.28-0.99-6.91-2.98c-1.63-1.95-2.46-4.77-2.46-8.42
			c0-3.78,0.83-6.63,2.53-8.58C247.56,327.94,249.87,326.95,252.75,326.95"/>
		<path style="clip-path:url(#SVGID_00000003085474435794614930000005419606863860690315_);fill:#01689E;" d="M292.88,323.3
			c-0.42-0.03-1.06-0.06-1.92-0.06c-1.63,0-3.2,0.35-4.77,1.02c-1.54,0.67-3.33,1.82-5.35,3.46v-4.48h-5.12v30.37h5.12v-21.57
			c1.35-1.09,2.75-2.02,4.23-2.69c1.47-0.7,2.98-1.06,4.58-1.06c0.96,0,1.83,0.03,2.53,0.13c0.74,0.06,1.47,0.19,2.21,0.38h0.29
			v-5.25C293.87,323.43,293.27,323.33,292.88,323.3"/>
		<path style="clip-path:url(#SVGID_00000003085474435794614930000005419606863860690315_);fill:#01689E;" d="M326.01,323.24v22.66
			c-1.34,1.09-2.82,1.95-4.38,2.66c-1.57,0.67-3.01,1.02-4.35,1.02c-1.47,0-2.59-0.19-3.39-0.54c-0.77-0.35-1.41-0.93-1.89-1.73
			c-0.48-0.8-0.8-1.73-0.93-2.82c-0.16-1.09-0.23-2.43-0.23-3.97v-17.28h-5.12v19.71c0,3.78,0.9,6.62,2.69,8.58
			c1.76,1.95,4.26,2.91,7.43,2.91c1.92,0,3.65-0.35,5.22-1.09c1.6-0.7,3.23-1.76,4.96-3.1v3.36h5.12v-30.37H326.01z"/>
		<path style="clip-path:url(#SVGID_00000003085474435794614930000005419606863860690315_);fill:#01689E;" d="M347.35,318.15h5.79
			v-5.31h-5.79V318.15z M347.7,353.61h5.09v-30.37h-5.09V353.61z"/>
		<path style="clip-path:url(#SVGID_00000003085474435794614930000005419606863860690315_);fill:#01689E;" d="M385.15,327.52v-4.29
			h-10.56v-8.74h-5.09v8.74h-3.46v4.29h3.46v16.16c0,3.68,0.8,6.34,2.4,8c1.63,1.7,3.97,2.53,7.07,2.53c0.9,0,1.89-0.1,3.04-0.26
			c1.12-0.16,2.17-0.38,3.14-0.64v-4.58h-0.29c-0.38,0.16-1.02,0.35-1.95,0.61c-0.9,0.26-1.76,0.35-2.59,0.35
			c-1.44,0-2.5-0.16-3.2-0.48c-0.7-0.35-1.25-0.86-1.66-1.6c-0.42-0.77-0.67-1.63-0.74-2.53c-0.1-0.9-0.13-2.14-0.13-3.71v-13.86
			H385.15z"/>
		<path style="clip-path:url(#SVGID_00000003085474435794614930000005419606863860690315_);fill:#01689E;" d="M397.5,318.15h5.76
			v-5.31h-5.76V318.15z M397.82,353.61h5.12v-30.37h-5.12V353.61z"/>
		<path style="clip-path:url(#SVGID_00000003085474435794614930000005419606863860690315_);fill:#01689E;" d="M442.34,325.35
			c-1.73-1.95-4.22-2.94-7.52-2.94c-1.79,0-3.55,0.35-5.25,1.09c-1.7,0.77-3.36,1.79-4.93,3.1v-3.36h-5.12v30.37h5.12v-22.69
			c1.38-1.05,2.85-1.92,4.35-2.62c1.54-0.7,3.01-1.02,4.39-1.02c1.38,0,2.46,0.16,3.33,0.54c0.83,0.38,1.51,0.93,1.95,1.7
			c0.45,0.7,0.74,1.66,0.9,2.88c0.16,1.22,0.26,2.53,0.26,3.94v17.28h5.09v-19.71C444.9,330.18,444.04,327.33,442.34,325.35"/>
		<path style="clip-path:url(#SVGID_00000003085474435794614930000005419606863860690315_);fill:#01689E;" d="M481.06,323.24
			l-0.32,1.31c-1.34-0.74-2.59-1.28-3.78-1.63c-1.18-0.35-2.66-0.51-4.42-0.51c-1.66,0-3.36,0.35-5.03,1.06
			c-1.69,0.74-3.14,1.73-4.29,3.01c-1.28,1.38-2.27,3.01-3.01,4.9c-0.74,1.92-1.12,4.16-1.12,6.79c0,4.74,1.09,8.45,3.2,11.07
			c2.14,2.62,5.02,3.9,8.64,3.9c2.18,0,3.97-0.29,5.38-0.9c1.41-0.61,2.88-1.54,4.42-2.75v2.75c0,1.25-0.16,2.37-0.42,3.36
			c-0.29,0.99-0.74,1.86-1.38,2.56c-0.61,0.74-1.51,1.31-2.66,1.73c-1.12,0.42-2.59,0.64-4.32,0.64c-1.82,0-3.62-0.26-5.44-0.74
			c-1.79-0.48-3.14-0.87-3.97-1.22h-0.26v5.22c1.47,0.41,2.98,0.77,4.51,0.99c1.54,0.23,3.11,0.32,4.74,0.32
			c4.83,0,8.45-1.18,10.79-3.62c2.34-2.4,3.49-6.18,3.49-11.33v-26.91H481.06z M480.74,345.25c-1.25,0.96-2.62,1.73-4.13,2.3
			c-1.5,0.58-2.98,0.87-4.48,0.87c-2.75,0-4.74-0.9-5.95-2.66c-1.18-1.76-1.79-4.32-1.79-7.74c0-3.58,0.8-6.34,2.43-8.19
			c1.6-1.89,3.81-2.85,6.63-2.85c1.15,0,2.33,0.13,3.49,0.42c1.18,0.26,2.43,0.67,3.81,1.31V345.25z"/>
		<path style="clip-path:url(#SVGID_00000003085474435794614930000005419606863860690315_);fill:#01689E;" d="M204.42,373.42
			c-3.11-2.17-8.16-3.23-15.14-3.23c-2.94,0-5.86,0.22-8.8,0.7c-2.91,0.45-5.03,0.87-6.31,1.22v9.25h1.12
			c0.99-0.42,2.66-0.96,4.93-1.66c2.3-0.74,4.48-1.09,6.5-1.09c3.36,0,5.92,0.42,7.65,1.22c1.73,0.8,2.59,2.27,2.59,4.39v0.22
			c-3.62,0.19-7.1,0.51-10.47,0.93c-3.39,0.45-6.21,1.18-8.48,2.21c-2.3,1.02-4.06,2.4-5.31,4.19c-1.25,1.76-1.89,4.06-1.89,6.85
			c0,3.52,1.22,6.4,3.68,8.64c2.46,2.24,5.5,3.39,9.15,3.39c1.54,0,2.98-0.13,4.26-0.42c1.31-0.26,2.56-0.64,3.78-1.18
			c0.86-0.42,1.76-0.99,2.75-1.7c0.99-0.7,1.79-1.31,2.46-1.79v4.06h12.19v-26.08C209.1,378.92,207.53,375.56,204.42,373.42
			 M196.9,399.56c-0.96,0.83-2.08,1.47-3.33,1.98c-1.28,0.51-2.53,0.74-3.74,0.74c-1.54,0-2.69-0.1-3.42-0.32
			c-0.7-0.19-1.34-0.54-1.86-0.99c-0.54-0.45-0.9-0.93-1.02-1.44c-0.13-0.48-0.22-1.12-0.22-1.92c0-1.22,0.35-2.18,0.99-2.91
			c0.64-0.74,1.57-1.31,2.82-1.7c0.99-0.32,2.46-0.58,4.39-0.83c1.95-0.22,3.74-0.41,5.41-0.54V399.56z"/>
		<path style="clip-path:url(#SVGID_00000003085474435794614930000005419606863860690315_);fill:#01689E;" d="M253.84,371.27
			l-0.45,1.7c-1.41-0.86-2.94-1.54-4.64-2.02c-1.7-0.51-3.55-0.74-5.63-0.74c-2.3,0-4.54,0.45-6.72,1.31
			c-2.21,0.9-4.06,2.14-5.57,3.74c-1.6,1.7-2.85,3.71-3.74,5.98c-0.86,2.3-1.31,5.06-1.31,8.19c0,6.63,1.44,11.52,4.35,14.75
			c2.91,3.23,7.04,4.87,12.42,4.87c2.21,0,4.19-0.35,5.99-1.06c1.79-0.7,3.45-1.66,4.93-2.88v0.7c0,1.6-0.16,2.98-0.48,4.1
			c-0.32,1.15-0.83,2.08-1.53,2.82c-0.74,0.77-1.83,1.38-3.27,1.79c-1.41,0.42-3.27,0.64-5.54,0.64c-1.7,0-3.62-0.26-5.79-0.74
			c-2.14-0.51-4-1.06-5.47-1.63h-1.5v9.6c1.89,0.45,4.13,0.83,6.69,1.15c2.59,0.32,5.22,0.48,7.87,0.48c3.3,0,6.21-0.32,8.83-0.96
			c2.59-0.61,4.83-1.63,6.66-3.04c1.86-1.38,3.3-3.3,4.32-5.76c1.02-2.47,1.54-5.51,1.54-9.09v-33.92H253.84z M253.45,397.52
			c-0.99,0.64-2.05,1.15-3.23,1.54c-1.18,0.38-2.4,0.58-3.62,0.58c-2.72,0-4.74-0.74-6.11-2.18c-1.38-1.47-2.08-4.03-2.08-7.71
			c0-3.33,0.83-5.92,2.43-7.78c1.6-1.86,4.03-2.78,7.27-2.78c0.8,0,1.73,0.1,2.75,0.26c1.02,0.19,1.89,0.42,2.59,0.7V397.52z"/>
		<path style="clip-path:url(#SVGID_00000003085474435794614930000005419606863860690315_);fill:#01689E;" d="M323.25,388.4
			c0-5.92-1.6-10.43-4.74-13.6c-3.14-3.14-7.81-4.7-14.05-4.7c-6.75,0-12.1,1.82-15.97,5.54c-3.87,3.68-5.82,8.71-5.82,15.04
			c0,6.4,2.05,11.3,6.14,14.79c4.1,3.46,10.02,5.18,17.7,5.18c2.98,0,5.7-0.26,8.16-0.77c2.47-0.48,5.06-1.31,7.84-2.43v-9.86h-1.38
			c-1.41,1.09-3.33,2.08-5.76,3.01c-2.43,0.93-4.93,1.41-7.52,1.41c-4.1,0-7.2-0.8-9.31-2.4c-2.11-1.6-3.27-3.87-3.42-6.88h28.13
			V388.4z M295.09,385.51c0.16-2.72,1.02-4.67,2.56-5.92c1.51-1.22,3.46-1.82,5.82-1.82c2.56,0,4.42,0.64,5.63,1.92
			c1.22,1.31,1.86,3.23,1.92,5.82H295.09z"/>
		<path style="clip-path:url(#SVGID_00000003085474435794614930000005419606863860690315_);fill:#01689E;" d="M375.04,373.83
			c-2.34-2.4-5.57-3.62-9.7-3.62c-2.46,0-4.7,0.45-6.72,1.34c-1.98,0.93-4.1,2.24-6.27,3.94v-4.22h-12.32v38.34h12.32v-27.17
			c1.35-0.8,2.59-1.38,3.75-1.76c1.15-0.35,2.27-0.54,3.39-0.54c1.57,0,2.78,0.19,3.65,0.58c0.9,0.38,1.57,1.02,2.02,1.86
			c0.38,0.74,0.64,1.86,0.8,3.39c0.16,1.54,0.26,3.07,0.26,4.64v19.01h12.32v-24.96C378.52,379.85,377.37,376.23,375.04,373.83"/>
		<path style="clip-path:url(#SVGID_00000003085474435794614930000005419606863860690315_);fill:#01689E;" d="M418.05,378.99
			c1.47,0,2.78,0.16,3.91,0.48c1.09,0.35,2.11,0.77,3.04,1.25c0.99,0.54,1.82,1.06,2.5,1.6c0.67,0.58,1.22,1.02,1.7,1.44h1.76
			v-10.47c-1.92-0.93-3.97-1.66-6.18-2.24c-2.21-0.55-4.64-0.83-7.23-0.83c-2.91,0-5.73,0.38-8.45,1.12
			c-2.69,0.77-5.09,1.92-7.17,3.55c-2.14,1.7-3.81,3.84-4.99,6.46c-1.18,2.59-1.79,5.67-1.79,9.25c0,3.39,0.54,6.34,1.66,8.86
			c1.12,2.53,2.69,4.61,4.7,6.27c2.05,1.66,4.48,2.88,7.23,3.68c2.75,0.8,5.82,1.22,9.15,1.22c2.56,0,4.9-0.29,6.98-0.8
			c2.11-0.54,4.13-1.28,6.08-2.18v-10.5h-1.76c-0.48,0.48-1.02,0.99-1.63,1.47c-0.58,0.51-1.25,0.99-2.05,1.44
			c-0.8,0.48-1.82,0.9-3.07,1.25c-1.25,0.35-2.62,0.54-4.16,0.54c-3.33,0-5.89-0.96-7.71-2.88c-1.79-1.92-2.69-4.7-2.69-8.38
			c0-3.58,0.86-6.4,2.62-8.48C412.26,380.01,414.78,378.99,418.05,378.99"/>
		<polygon style="clip-path:url(#SVGID_00000003085474435794614930000005419606863860690315_);fill:#01689E;" points="
			473.19,371.27 464.45,396.04 455.3,371.27 442.4,371.27 457.28,409.33 451.2,423.66 464.55,423.66 485.83,371.27 		"/>
	</g>
</g>
</svg>
